<svg xmlns="http://www.w3.org/2000/svg" viewBox="0 0 500 500" fill="none">
  <defs>
    <linearGradient id="g" x1="0" y1="0" x2="500" y2="500" gradientUnits="userSpaceOnUse">
      <stop stop-color="#4F46E5"/>
      <stop offset="1" stop-color="#06B6D4"/>
    </linearGradient>
  </defs>
  <path d="M488.354 100.479C483.232 97.9199 481.025 102.798 478.032 105.278C477.007 106.079 476.143 107.119 475.273 108.076C467.793 116.24 459.048 121.597 447.622 120.957C430.923 120 416.66 125.356 404.058 138.398C401.377 122.319 392.476 112.72 378.926 106.558C371.836 103.359 364.668 100.156 359.702 93.1982C356.235 88.2373 355.293 82.7197 353.56 77.2754C352.456 73.999 351.353 70.6396 347.651 70.0781C343.633 69.4385 342.056 72.876 340.479 75.7568C334.18 87.5195 331.733 100.479 331.973 113.599C332.524 143.12 344.736 166.641 368.999 183.359C371.758 185.278 372.466 187.197 371.597 190C369.946 195.757 367.974 201.357 366.24 207.119C365.137 210.801 363.486 211.597 359.624 210C346.309 204.321 334.81 195.918 324.644 185.757C307.393 168.721 291.792 149.917 272.334 135.2C267.764 131.758 263.193 128.56 258.467 125.518C238.618 105.84 261.069 89.6777 266.27 87.7588C271.704 85.7568 268.159 78.877 250.591 78.96C233.022 79.0381 216.953 85.0391 196.47 93.0371C193.477 94.2383 190.322 95.1172 187.095 95.8398C168.501 92.2363 149.199 91.4355 129.033 93.7598C91.0596 98.0762 60.7275 116.396 38.4326 147.681C11.6455 185.278 5.3418 227.998 13.0664 272.559C21.1768 319.521 44.6582 358.398 80.7373 388.799C118.159 420.322 161.255 435.762 210.41 432.803C240.269 431.04 273.516 426.963 311.016 394.561C320.469 399.36 330.396 401.279 346.86 402.72C359.546 403.921 371.758 402.08 381.211 400.078C396.021 396.88 394.995 382.881 389.639 380.322C346.23 359.678 355.762 368.081 347.1 361.279C369.155 334.639 402.402 306.958 415.4 217.28C416.426 210.161 415.557 205.679 415.4 199.917C415.322 196.396 416.108 195.039 420.049 194.639C430.923 193.359 441.479 190.317 451.167 184.878C479.292 169.199 490.64 143.438 493.315 112.559C493.711 107.837 493.237 102.959 488.354 100.479ZM243.262 378.398C201.196 344.639 180.791 333.521 172.358 333.999C164.482 334.482 165.898 343.682 167.632 349.678C169.443 355.601 171.812 359.683 175.117 364.878C177.402 368.32 178.979 373.442 172.832 377.28C159.282 385.84 135.728 374.399 134.624 373.838C107.207 357.358 84.2822 335.601 68.1348 305.84C52.5342 277.197 43.4766 246.479 41.9775 213.677C41.582 205.757 43.8672 202.959 51.5869 201.519C61.7529 199.6 72.2314 199.199 82.3926 200.718C125.327 207.119 161.885 226.719 192.529 257.759C210.02 275.439 223.252 296.558 236.885 317.202C251.377 339.121 266.978 360 286.831 377.119C293.843 383.12 299.434 387.681 304.79 391.04C288.643 392.881 261.699 393.281 243.262 378.398ZM263.433 246.001C263.433 242.48 266.191 239.678 269.658 239.678C270.444 239.678 271.152 239.839 271.782 240.078C272.651 240.4 273.438 240.879 274.067 241.602C275.171 242.72 275.801 244.321 275.801 246.001C275.801 249.521 273.042 252.319 269.575 252.319C266.108 252.319 263.433 249.521 263.433 246.001ZM326.064 278.799C322.046 280.479 318.027 281.919 314.165 282.08C308.179 282.397 301.641 279.922 298.096 276.88C292.583 272.158 288.643 269.521 286.987 261.279C286.279 257.759 286.675 252.319 287.305 249.199C288.721 242.48 287.144 238.159 282.495 234.238C278.716 231.04 273.911 230.161 268.633 230.161C266.66 230.161 264.849 229.277 263.511 228.56C261.304 227.441 259.492 224.639 261.226 221.201C261.777 220.078 264.458 217.358 265.088 216.88C272.256 212.72 280.527 214.077 288.169 217.197C295.259 220.161 300.615 225.601 308.34 233.281C316.216 242.559 317.632 245.117 322.124 252.08C325.669 257.52 328.901 263.12 331.104 269.521C332.446 273.521 330.713 276.802 326.064 278.799Z"
        fill="url(#g)" fill-rule="nonzero"/>
</svg>
